<svg xmlns="http://www.w3.org/2000/svg" xmlns:svg="http://www.w3.org/2000/svg" id="svg3837" width="32" height="32" version="1.1"><title id="title2998">Microphone Muted</title><defs id="defs3839"><filter id="filter4392" style="color-interpolation-filters:sRGB"><feFlood id="feFlood4394" flood-color="silver" flood-opacity="1" result="flood"/><feComposite id="feComposite4396" in="flood" in2="SourceGraphic" operator="in" result="composite1"/><feGaussianBlur id="feGaussianBlur4398" in="composite" result="blur" stdDeviation=".5"/><feOffset id="feOffset4400" dx="0" dy="0" result="offset"/><feComposite id="feComposite4402" in="SourceGraphic" in2="offset" operator="over" result="composite2"/></filter></defs><metadata id="metadata3842"/><g id="layer1"><path style="fill:silver;fill-opacity:1;fill-rule:nonzero;stroke:#999;filter:url(#filter4392);stroke-opacity:1;stroke-linejoin:round;stroke-width:.25;stroke-miterlimit:4;stroke-dasharray:none" id="path4358" d="M 21 6 C 20.234876 6 19.523349 6.2692812 18.875 6.6875 L 25.3125 13.125 C 25.730719 12.476651 26 11.765124 26 11 L 26 10.9375 C 25.962154 8.2033257 23.734436 6 21 6 z M 17.40625 8.03125 C 16.618653 9.0638128 16.124067 10.356586 16.03125 11.59375 L 20.40625 15.96875 C 21.643414 15.875933 22.936187 15.381347 23.96875 14.59375 L 17.40625 8.03125 z M 15.625 12.625 C 13.852773 15.111915 6 24 6 24 L 7 25 L 8 26 C 8 26 16.888085 18.147227 19.375 16.375 L 15.625 12.625 z"/></g></svg>